<?xml version="1.0" encoding="UTF-8"?>
<svg xmlns="http://www.w3.org/2000/svg" xmlns:xlink="http://www.w3.org/1999/xlink" viewBox="0 0 1561.79 549.07">
  <defs>
    <style>
      .cls-1 {
        fill: #280a33;
      }

      .cls-2 {
        fill: #ff006f;
      }

      .cls-3 {
        fill: url(#linear-gradient-28);
      }

      .cls-4 {
        fill: url(#linear-gradient-39);
      }

      .cls-4, .cls-5, .cls-6, .cls-7, .cls-8, .cls-9, .cls-10, .cls-11, .cls-12, .cls-13, .cls-14, .cls-15, .cls-16, .cls-17, .cls-18, .cls-19 {
        mix-blend-mode: multiply;
      }

      .cls-4, .cls-9, .cls-11, .cls-15 {
        opacity: .28;
      }

      .cls-20 {
        fill: url(#linear-gradient-21);
      }

      .cls-20, .cls-21, .cls-22, .cls-23, .cls-24, .cls-25, .cls-26, .cls-27, .cls-28, .cls-29, .cls-30, .cls-31, .cls-32, .cls-33, .cls-34, .cls-35, .cls-36, .cls-37, .cls-38, .cls-39, .cls-40, .cls-41, .cls-42, .cls-43, .cls-44, .cls-45, .cls-46, .cls-47 {
        mix-blend-mode: screen;
      }

      .cls-48 {
        fill: url(#linear-gradient-42);
      }

      .cls-21 {
        fill: url(#linear-gradient-43);
        opacity: .78;
      }

      .cls-5 {
        fill: #006fb3;
        opacity: .33;
      }

      .cls-49 {
        fill: #5600cc;
      }

      .cls-22 {
        fill: url(#radial-gradient-6);
      }

      .cls-22, .cls-23, .cls-25, .cls-27, .cls-29, .cls-32, .cls-33, .cls-37, .cls-40, .cls-42, .cls-45, .cls-47 {
        fill-rule: evenodd;
      }

      .cls-50 {
        fill: url(#linear-gradient-2);
      }

      .cls-23 {
        fill: url(#radial-gradient-11);
      }

      .cls-23, .cls-40 {
        opacity: .2;
      }

      .cls-51 {
        fill: url(#linear-gradient-10);
      }

      .cls-24 {
        fill: url(#linear-gradient-25);
      }

      .cls-52 {
        fill: url(#linear-gradient-27);
      }

      .cls-25 {
        fill: url(#radial-gradient-4);
      }

      .cls-53 {
        fill: url(#linear-gradient-37);
      }

      .cls-26 {
        fill: url(#linear-gradient-18);
      }

      .cls-27 {
        fill: url(#radial-gradient-9);
      }

      .cls-54, .cls-55, .cls-34 {
        fill: #fff;
      }

      .cls-28 {
        fill: url(#linear-gradient-19);
      }

      .cls-6, .cls-8 {
        fill: #6d2eae;
      }

      .cls-6, .cls-10, .cls-13, .cls-17 {
        opacity: .56;
      }

      .cls-56 {
        fill: url(#linear-gradient-26);
      }

      .cls-7 {
        fill: url(#linear-gradient-29);
      }

      .cls-7, .cls-16, .cls-18, .cls-19 {
        opacity: .25;
      }

      .cls-29 {
        fill: url(#radial-gradient-12);
        opacity: .41;
      }

      .cls-57 {
        fill: none;
      }

      .cls-58 {
        fill: url(#linear-gradient-4);
      }

      .cls-59 {
        fill: url(#linear-gradient-35);
      }

      .cls-60 {
        fill: url(#linear-gradient-30);
      }

      .cls-61 {
        mix-blend-mode: soft-light;
      }

      .cls-61, .cls-62 {
        fill: #ffa4a7;
      }

      .cls-30 {
        fill: url(#radial-gradient-2);
      }

      .cls-30, .cls-31, .cls-35 {
        opacity: .71;
      }

      .cls-63 {
        fill: url(#linear-gradient-3);
      }

      .cls-64 {
        fill: url(#linear-gradient-34);
      }

      .cls-55 {
        opacity: .72;
      }

      .cls-8 {
        opacity: .89;
      }

      .cls-65 {
        fill: url(#linear-gradient-5);
      }

      .cls-31 {
        fill: url(#radial-gradient);
      }

      .cls-32 {
        fill: url(#radial-gradient-15);
      }

      .cls-32, .cls-33, .cls-45 {
        opacity: .5;
      }

      .cls-9 {
        fill: url(#linear-gradient-38);
      }

      .cls-66 {
        fill: url(#linear-gradient-24);
      }

      .cls-33 {
        fill: url(#radial-gradient-14);
      }

      .cls-10 {
        fill: url(#linear-gradient-44);
      }

      .cls-67 {
        isolation: isolate;
      }

      .cls-11 {
        fill: url(#linear-gradient-12);
      }

      .cls-12 {
        fill: #6315c2;
        opacity: .45;
      }

      .cls-68 {
        fill: url(#linear-gradient-8);
      }

      .cls-13 {
        fill: url(#linear-gradient-45);
      }

      .cls-69 {
        fill: url(#linear-gradient-22);
      }

      .cls-69, .cls-70 {
        mix-blend-mode: color-dodge;
        opacity: .21;
      }

      .cls-35 {
        fill: url(#radial-gradient-3);
      }

      .cls-36 {
        fill: url(#linear-gradient-40);
      }

      .cls-37 {
        fill: url(#radial-gradient-5);
      }

      .cls-71 {
        fill: url(#linear-gradient-7);
      }

      .cls-14 {
        fill: #6d15ff;
        opacity: .18;
      }

      .cls-72 {
        fill: url(#linear-gradient-9);
      }

      .cls-70 {
        fill: url(#linear-gradient-31);
      }

      .cls-73 {
        fill: #9700ff;
      }

      .cls-74 {
        fill: url(#linear-gradient-11);
      }

      .cls-38 {
        fill: url(#linear-gradient-16);
      }

      .cls-39 {
        fill: url(#linear-gradient-20);
      }

      .cls-75 {
        fill: #a15151;
      }

      .cls-40 {
        fill: url(#radial-gradient-10);
      }

      .cls-76 {
        fill: url(#linear-gradient-6);
      }

      .cls-41 {
        fill: url(#linear-gradient-17);
      }

      .cls-15 {
        fill: #dd402e;
      }

      .cls-77 {
        fill: url(#linear-gradient-36);
      }

      .cls-42 {
        fill: url(#radial-gradient-7);
      }

      .cls-43 {
        fill: url(#linear-gradient-15);
      }

      .cls-16 {
        fill: url(#linear-gradient-32);
      }

      .cls-44 {
        fill: url(#linear-gradient-14);
      }

      .cls-17 {
        fill: url(#linear-gradient-23);
      }

      .cls-78 {
        fill: url(#linear-gradient-41);
      }

      .cls-18 {
        fill: url(#linear-gradient-33);
      }

      .cls-79 {
        fill: url(#linear-gradient);
      }

      .cls-45 {
        fill: url(#radial-gradient-13);
      }

      .cls-80 {
        clip-path: url(#clippath);
      }

      .cls-81 {
        fill: #b00077;
      }

      .cls-19 {
        fill: #002aae;
      }

      .cls-46 {
        fill: url(#linear-gradient-13);
      }

      .cls-82 {
        fill: #862924;
      }

      .cls-47 {
        fill: url(#radial-gradient-8);
      }
    </style>
    <clipPath id="clippath">
      <rect class="cls-57" width="1561.79" height="549.07" transform="translate(1561.79 549.07) rotate(180)"/>
    </clipPath>
    <radialGradient id="radial-gradient" cx="1113.15" cy="-756.28" fx="1113.15" fy="-756.28" r="123.41" gradientTransform="translate(-624.49 1218.89) scale(.9 1.29)" gradientUnits="userSpaceOnUse">
      <stop offset="0" stop-color="aqua"/>
      <stop offset=".06" stop-color="#00e9e9"/>
      <stop offset=".26" stop-color="#00a3a3"/>
      <stop offset=".45" stop-color="#006969"/>
      <stop offset=".63" stop-color="#003b3b"/>
      <stop offset=".78" stop-color="#001b1b"/>
      <stop offset=".91" stop-color="#000707"/>
      <stop offset="1" stop-color="#000"/>
    </radialGradient>
    <linearGradient id="linear-gradient" x1="1056.48" y1="-867.64" x2="1056.48" y2="-1353.04" gradientTransform="translate(-219.58 1618.88) rotate(-21.65)" gradientUnits="userSpaceOnUse">
      <stop offset="0" stop-color="#5900ff"/>
      <stop offset=".1" stop-color="#6310ff"/>
      <stop offset=".29" stop-color="#7f3bff"/>
      <stop offset=".56" stop-color="#ad81ff"/>
      <stop offset=".9" stop-color="#eae0ff"/>
      <stop offset="1" stop-color="#fff"/>
    </linearGradient>
    <linearGradient id="linear-gradient-2" x1="1022.69" y1="-932.85" x2="1083.31" y2="-1142.56" gradientTransform="translate(-219.58 1618.88) rotate(-21.65)" gradientUnits="userSpaceOnUse">
      <stop offset="0" stop-color="#f4ffbf"/>
      <stop offset=".21" stop-color="#f7d7af"/>
      <stop offset=".44" stop-color="#fab5a1"/>
      <stop offset=".65" stop-color="#fd9c97"/>
      <stop offset=".84" stop-color="#fe8d92"/>
      <stop offset="1" stop-color="#ff8890"/>
    </linearGradient>
    <linearGradient id="linear-gradient-3" x1="1059.07" y1="-943.03" x2="1059.07" y2="-1040.35" gradientTransform="translate(-219.58 1618.88) rotate(-21.65)" gradientUnits="userSpaceOnUse">
      <stop offset="0" stop-color="#4acf6d"/>
      <stop offset=".66" stop-color="#15a065"/>
      <stop offset="1" stop-color="#008d63"/>
    </linearGradient>
    <linearGradient id="linear-gradient-4" x1="1047.07" y1="-944.5" x2="1047.07" y2="-1041.72" xlink:href="#linear-gradient-3"/>
    <linearGradient id="linear-gradient-5" x1="1068.79" y1="-937.49" x2="1068.79" y2="-1039.97" xlink:href="#linear-gradient-3"/>
    <linearGradient id="linear-gradient-6" x1="1081.78" y1="-1023.77" x2="1081.78" y2="-1062.96" xlink:href="#linear-gradient-3"/>
    <linearGradient id="linear-gradient-7" x1="1065.35" y1="-945.1" x2="1065.35" y2="-1075.1" xlink:href="#linear-gradient-3"/>
    <linearGradient id="linear-gradient-8" x1="1074.36" y1="-939.5" x2="1074.36" y2="-1116.1" gradientTransform="translate(-219.58 1618.88) rotate(-21.65)" gradientUnits="userSpaceOnUse">
      <stop offset="0" stop-color="#ff38b5"/>
      <stop offset=".22" stop-color="#e52ac7"/>
      <stop offset=".75" stop-color="#ac0bef"/>
      <stop offset="1" stop-color="#9700ff"/>
    </linearGradient>
    <linearGradient id="linear-gradient-9" x1="1048.5" y1="-953.21" x2="1048.5" y2="-1126.17" xlink:href="#linear-gradient-8"/>
    <linearGradient id="linear-gradient-10" x1="1061.07" y1="-952.72" x2="1061.07" y2="-1123.52" xlink:href="#linear-gradient-8"/>
    <linearGradient id="linear-gradient-11" x1="1064.81" y1="-944.06" x2="1064.81" y2="-1122.32" xlink:href="#linear-gradient-8"/>
    <linearGradient id="linear-gradient-12" x1="1065.93" y1="-909.72" x2="1064.66" y2="-942.71" gradientTransform="translate(-219.58 1618.88) rotate(-21.65)" gradientUnits="userSpaceOnUse">
      <stop offset=".02" stop-color="#fff"/>
      <stop offset=".44" stop-color="#efa79f"/>
      <stop offset=".83" stop-color="#e25d4d"/>
      <stop offset="1" stop-color="#dd402e"/>
    </linearGradient>
    <linearGradient id="linear-gradient-13" x1="1089.22" y1="-1089.96" x2="1059.93" y2="-1053.18" gradientTransform="translate(-219.58 1618.88) rotate(-21.65)" gradientUnits="userSpaceOnUse">
      <stop offset="0" stop-color="#ff0"/>
      <stop offset=".05" stop-color="#eded00"/>
      <stop offset=".25" stop-color="#a6a600"/>
      <stop offset=".45" stop-color="#6b6b00"/>
      <stop offset=".62" stop-color="#3c3c00"/>
      <stop offset=".78" stop-color="#1b1b00"/>
      <stop offset=".91" stop-color="#070700"/>
      <stop offset="1" stop-color="#000"/>
    </linearGradient>
    <linearGradient id="linear-gradient-14" x1="1087.28" y1="-1064.24" x2="1087.28" y2="-1095.45" xlink:href="#linear-gradient-13"/>
    <linearGradient id="linear-gradient-15" x1="1103.04" y1="-1076.2" x2="1066.94" y2="-1040.09" xlink:href="#linear-gradient-13"/>
    <linearGradient id="linear-gradient-16" x1="1088.45" y1="-1041.07" x2="1063.23" y2="-1015.86" xlink:href="#linear-gradient-13"/>
    <linearGradient id="linear-gradient-17" x1="1076.45" y1="-1094.49" x2="1062.38" y2="-1080.42" xlink:href="#linear-gradient-13"/>
    <linearGradient id="linear-gradient-18" x1="1081.06" y1="-1062.78" x2="1052.67" y2="-1034.4" gradientTransform="translate(-219.58 1618.88) rotate(-21.65)" gradientUnits="userSpaceOnUse">
      <stop offset="0" stop-color="#ff0"/>
      <stop offset=".07" stop-color="#e9e900"/>
      <stop offset=".42" stop-color="#878700"/>
      <stop offset=".7" stop-color="#3e3e00"/>
      <stop offset=".9" stop-color="#110"/>
      <stop offset="1" stop-color="#000"/>
    </linearGradient>
    <linearGradient id="linear-gradient-19" x1="1101.29" y1="-1126.12" x2="1076.9" y2="-1095.44" xlink:href="#linear-gradient-13"/>
    <linearGradient id="linear-gradient-20" x1="1074.08" y1="-1133.88" x2="1024.17" y2="-1108.16" xlink:href="#linear-gradient-13"/>
    <linearGradient id="linear-gradient-21" x1="1128.39" y1="-1250.69" x2="1055.24" y2="-985.98" xlink:href="#linear-gradient-13"/>
    <linearGradient id="linear-gradient-22" x1="1022.69" y1="-932.85" x2="1083.31" y2="-1142.56" gradientTransform="translate(-219.58 1618.88) rotate(-21.65)" gradientUnits="userSpaceOnUse">
      <stop offset="0" stop-color="#efe2ef"/>
      <stop offset=".23" stop-color="#ebe0ef"/>
      <stop offset=".45" stop-color="#e0d9f1"/>
      <stop offset=".66" stop-color="#cdcff5"/>
      <stop offset=".86" stop-color="#b3c1fa"/>
      <stop offset="1" stop-color="#9db5ff"/>
    </linearGradient>
    <linearGradient id="linear-gradient-23" x1="1077.45" y1="-1146.85" x2="1158.66" y2="-1146.85" gradientTransform="translate(-214.44 1651.92) rotate(-23.5)" gradientUnits="userSpaceOnUse">
      <stop offset="0" stop-color="#fff"/>
      <stop offset=".03" stop-color="#f2ecf7"/>
      <stop offset=".1" stop-color="#d3c0e6"/>
      <stop offset=".18" stop-color="#b798d7"/>
      <stop offset=".26" stop-color="#a077ca"/>
      <stop offset=".35" stop-color="#8d5cc0"/>
      <stop offset=".45" stop-color="#7f47b8"/>
      <stop offset=".56" stop-color="#7439b2"/>
      <stop offset=".69" stop-color="#6e30af"/>
      <stop offset=".89" stop-color="#6d2eae"/>
    </linearGradient>
    <linearGradient id="linear-gradient-24" x1="1059.27" y1="-1101.94" x2="1059.27" y2="-1207.73" gradientTransform="translate(-219.58 1618.88) rotate(-21.65)" gradientUnits="userSpaceOnUse">
      <stop offset="0" stop-color="#5900ff"/>
      <stop offset=".2" stop-color="#8645ff"/>
      <stop offset=".42" stop-color="#b086ff"/>
      <stop offset=".61" stop-color="#d2baff"/>
      <stop offset=".78" stop-color="#eadfff"/>
      <stop offset=".91" stop-color="#f9f6ff"/>
      <stop offset="1" stop-color="#fff"/>
    </linearGradient>
    <linearGradient id="linear-gradient-25" x1="1101.53" y1="-1172.15" x2="1072.86" y2="-1160.55" gradientTransform="translate(-219.58 1618.88) rotate(-21.65)" gradientUnits="userSpaceOnUse">
      <stop offset="0" stop-color="#ff0"/>
      <stop offset=".07" stop-color="#d3d300"/>
      <stop offset=".16" stop-color="#a2a200"/>
      <stop offset=".26" stop-color="#767600"/>
      <stop offset=".36" stop-color="#525200"/>
      <stop offset=".47" stop-color="#343400"/>
      <stop offset=".58" stop-color="#1d1d00"/>
      <stop offset=".7" stop-color="#0c0c00"/>
      <stop offset=".83" stop-color="#030300"/>
      <stop offset="1" stop-color="#000"/>
    </linearGradient>
    <linearGradient id="linear-gradient-26" x1="1072.34" y1="-1209.2" x2="1035.58" y2="-1172.43" gradientTransform="translate(-219.58 1618.88) rotate(-21.65)" gradientUnits="userSpaceOnUse">
      <stop offset="0" stop-color="#a15151"/>
      <stop offset=".35" stop-color="#9c4c4c"/>
      <stop offset=".72" stop-color="#914140"/>
      <stop offset="1" stop-color="#833331"/>
    </linearGradient>
    <linearGradient id="linear-gradient-27" x1="1072.26" y1="-1207.84" x2="1039.16" y2="-1174.74" gradientTransform="translate(-219.58 1618.88) rotate(-21.65)" gradientUnits="userSpaceOnUse">
      <stop offset="0" stop-color="#e09595"/>
      <stop offset=".25" stop-color="#cd8080"/>
      <stop offset=".74" stop-color="#ad5e5e"/>
      <stop offset="1" stop-color="#a15151"/>
    </linearGradient>
    <radialGradient id="radial-gradient-2" cx="-4.25" cy="3526.65" fx="-4.25" fy="3526.65" r="551.6" gradientTransform="translate(3984.93 278.78) rotate(90)" gradientUnits="userSpaceOnUse">
      <stop offset="0" stop-color="#ff0eff"/>
      <stop offset=".08" stop-color="#da0cda"/>
      <stop offset=".22" stop-color="#a108a1"/>
      <stop offset=".35" stop-color="#700670"/>
      <stop offset=".49" stop-color="#470347"/>
      <stop offset=".62" stop-color="#280228"/>
      <stop offset=".75" stop-color="#120012"/>
      <stop offset=".87" stop-color="#040004"/>
      <stop offset=".97" stop-color="#000"/>
    </radialGradient>
    <radialGradient id="radial-gradient-3" cx="339.35" cy="1321.46" fx="339.35" fy="1321.46" r="178.68" gradientTransform="translate(2194.55 -4.08) rotate(90) scale(.9 1.29)" gradientUnits="userSpaceOnUse">
      <stop offset="0" stop-color="#ff0eff"/>
      <stop offset=".06" stop-color="#e90ce9"/>
      <stop offset=".26" stop-color="#a308a3"/>
      <stop offset=".45" stop-color="#690569"/>
      <stop offset=".63" stop-color="#3b033b"/>
      <stop offset=".78" stop-color="#1b011b"/>
      <stop offset=".91" stop-color="#070007"/>
      <stop offset="1" stop-color="#000"/>
    </radialGradient>
    <linearGradient id="linear-gradient-28" x1="339.77" y1="1759.9" x2="451.49" y2="1345.08" gradientTransform="translate(645.35 -1358.83) rotate(18.28)" gradientUnits="userSpaceOnUse">
      <stop offset=".17" stop-color="#065e72"/>
      <stop offset="1" stop-color="#6abdfe"/>
    </linearGradient>
    <linearGradient id="linear-gradient-29" x1="374.89" y1="1833.25" x2="374.89" y2="1800.91" gradientTransform="translate(645.35 -1358.83) rotate(18.28)" gradientUnits="userSpaceOnUse">
      <stop offset="0" stop-color="#fff"/>
      <stop offset=".11" stop-color="#ccdce5"/>
      <stop offset=".24" stop-color="#96b9ca"/>
      <stop offset=".37" stop-color="#689ab2"/>
      <stop offset=".5" stop-color="#42809f"/>
      <stop offset=".63" stop-color="#256d91"/>
      <stop offset=".76" stop-color="#105f86"/>
      <stop offset=".88" stop-color="#045680"/>
      <stop offset="1" stop-color="#00547e"/>
    </linearGradient>
    <linearGradient id="linear-gradient-30" x1="365.98" y1="1806.47" x2="365.98" y2="1566.7" gradientTransform="translate(645.35 -1358.83) rotate(18.28)" xlink:href="#linear-gradient-8"/>
    <linearGradient id="linear-gradient-31" x1="366.13" y1="1742.54" x2="366.13" y2="1448.13" gradientTransform="translate(645.35 -1358.83) rotate(18.28)" xlink:href="#linear-gradient-22"/>
    <linearGradient id="linear-gradient-32" x1="474.08" y1="1538.98" x2="146.32" y2="1866.74" gradientTransform="translate(645.35 -1358.83) rotate(18.28)" gradientUnits="userSpaceOnUse">
      <stop offset=".44" stop-color="#002aae"/>
      <stop offset=".5" stop-color="#042daf"/>
      <stop offset=".57" stop-color="#1037b3"/>
      <stop offset=".64" stop-color="#2549b9"/>
      <stop offset=".71" stop-color="#4261c3"/>
      <stop offset=".78" stop-color="#6881cf"/>
      <stop offset=".85" stop-color="#96a7dd"/>
      <stop offset=".92" stop-color="#ccd4ee"/>
      <stop offset=".98" stop-color="#fff"/>
    </linearGradient>
    <linearGradient id="linear-gradient-33" x1="371.11" y1="1782.3" x2="371.11" y2="1664.75" xlink:href="#linear-gradient-32"/>
    <linearGradient id="linear-gradient-34" x1="372.86" y1="1779.6" x2="372.86" y2="1662.05" gradientTransform="translate(645.35 -1358.83) rotate(18.28)" gradientUnits="userSpaceOnUse">
      <stop offset="0" stop-color="#f4ffbf"/>
      <stop offset=".02" stop-color="#f4f6bb"/>
      <stop offset=".13" stop-color="#f7d4ae"/>
      <stop offset=".24" stop-color="#fab8a3"/>
      <stop offset=".36" stop-color="#fca39a"/>
      <stop offset=".49" stop-color="#fd9394"/>
      <stop offset=".65" stop-color="#fe8a91"/>
      <stop offset=".87" stop-color="#ff8890"/>
    </linearGradient>
    <linearGradient id="linear-gradient-35" x1="415.95" y1="1605.11" x2="348.1" y2="1672.96" gradientTransform="translate(645.35 -1358.83) rotate(18.28)" gradientUnits="userSpaceOnUse">
      <stop offset="0" stop-color="#fff1d2"/>
      <stop offset=".36" stop-color="#e5bdb1"/>
      <stop offset="1" stop-color="#b55b74"/>
    </linearGradient>
    <linearGradient id="linear-gradient-36" x1="400.16" y1="1665.69" x2="400.16" y2="1617.25" gradientTransform="translate(645.35 -1358.83) rotate(18.28)" gradientUnits="userSpaceOnUse">
      <stop offset="0" stop-color="#c35752"/>
      <stop offset=".35" stop-color="#a8423d"/>
      <stop offset=".75" stop-color="#8f2f2a"/>
      <stop offset="1" stop-color="#862924"/>
    </linearGradient>
    <linearGradient id="linear-gradient-37" x1="362.03" y1="1660.22" x2="362.03" y2="1617.25" xlink:href="#linear-gradient-36"/>
    <linearGradient id="linear-gradient-38" x1="379.71" y1="1653.94" x2="381.39" y2="1607.18" gradientTransform="translate(645.35 -1358.83) rotate(18.28)" gradientUnits="userSpaceOnUse">
      <stop offset="0" stop-color="#fff"/>
      <stop offset=".1" stop-color="#fdf8f8"/>
      <stop offset=".25" stop-color="#fae7e5"/>
      <stop offset=".42" stop-color="#f5ccc7"/>
      <stop offset=".61" stop-color="#efa59c"/>
      <stop offset=".81" stop-color="#e67467"/>
      <stop offset="1" stop-color="#dd402e"/>
    </linearGradient>
    <linearGradient id="linear-gradient-39" x1="421.98" y1="1686.85" x2="421.98" y2="1648" xlink:href="#linear-gradient-38"/>
    <linearGradient id="linear-gradient-40" x1="395.32" y1="1584.47" x2="363.88" y2="1615.91" gradientTransform="translate(645.35 -1358.83) rotate(18.28)" gradientUnits="userSpaceOnUse">
      <stop offset="0" stop-color="#ffff52"/>
      <stop offset=".34" stop-color="#9b9b31"/>
      <stop offset=".65" stop-color="#474717"/>
      <stop offset=".86" stop-color="#131306"/>
      <stop offset=".96" stop-color="#000"/>
    </linearGradient>
    <linearGradient id="linear-gradient-41" x1="381.29" y1="1672.13" x2="381.29" y2="1657.13" xlink:href="#linear-gradient-36"/>
    <linearGradient id="linear-gradient-42" x1="370.65" y1="1670.91" x2="308.23" y2="1733.32" gradientTransform="translate(645.35 -1358.83) rotate(18.28)" gradientUnits="userSpaceOnUse">
      <stop offset="0" stop-color="#f4ffbf"/>
      <stop offset=".42" stop-color="#f9c6a8"/>
      <stop offset=".81" stop-color="#fd9996"/>
      <stop offset="1" stop-color="#ff8890"/>
    </linearGradient>
    <linearGradient id="linear-gradient-43" x1="338.59" y1="1589.58" x2="587.82" y2="1569.05" gradientTransform="translate(645.35 -1358.83) rotate(18.28)" gradientUnits="userSpaceOnUse">
      <stop offset=".14" stop-color="#000"/>
      <stop offset=".26" stop-color="#3a3a00"/>
      <stop offset=".41" stop-color="#757500"/>
      <stop offset=".55" stop-color="#a6a600"/>
      <stop offset=".69" stop-color="#cc0"/>
      <stop offset=".81" stop-color="#e8e800"/>
      <stop offset=".92" stop-color="#f9f900"/>
      <stop offset="1" stop-color="#ff0"/>
    </linearGradient>
    <linearGradient id="linear-gradient-44" x1="336.44" y1="1404.89" x2="412.73" y2="1404.89" gradientTransform="translate(645.35 -1358.83) rotate(18.28)" gradientUnits="userSpaceOnUse">
      <stop offset=".11" stop-color="#6d2eae"/>
      <stop offset=".31" stop-color="#6e30af"/>
      <stop offset=".44" stop-color="#7439b2"/>
      <stop offset=".55" stop-color="#7f47b8"/>
      <stop offset=".65" stop-color="#8d5cc0"/>
      <stop offset=".74" stop-color="#a077ca"/>
      <stop offset=".82" stop-color="#b798d7"/>
      <stop offset=".9" stop-color="#d3c0e6"/>
      <stop offset=".97" stop-color="#f2ecf7"/>
      <stop offset="1" stop-color="#fff"/>
    </linearGradient>
    <linearGradient id="linear-gradient-45" x1="346.32" y1="1462.12" x2="432.82" y2="1462.12" gradientTransform="translate(645.35 -1358.83) rotate(18.28)" xlink:href="#linear-gradient-23"/>
    <radialGradient id="radial-gradient-4" cx="2111.4" cy="84.91" fx="2111.4" fy="84.91" r="14.43" gradientTransform="translate(804.99 -1881.14) rotate(69.3)" gradientUnits="userSpaceOnUse">
      <stop offset=".02" stop-color="#ff249a"/>
      <stop offset=".33" stop-color="#fc2398"/>
      <stop offset=".46" stop-color="#f52294"/>
      <stop offset=".56" stop-color="#e9208c"/>
      <stop offset=".65" stop-color="#d71e81"/>
      <stop offset=".72" stop-color="#bf1b73"/>
      <stop offset=".79" stop-color="#a31762"/>
      <stop offset=".85" stop-color="#80124d"/>
      <stop offset=".9" stop-color="#590c35"/>
      <stop offset=".95" stop-color="#2d061b"/>
      <stop offset="1" stop-color="#000"/>
    </radialGradient>
    <radialGradient id="radial-gradient-5" cx="2366.53" cy="182.7" fx="2366.53" fy="182.7" r="14.43" xlink:href="#radial-gradient-4"/>
    <radialGradient id="radial-gradient-6" cx="1837.25" cy="1535.15" fx="1837.25" fy="1535.15" r="14.43" xlink:href="#radial-gradient-4"/>
    <radialGradient id="radial-gradient-7" cx="2334.08" cy="362.82" fx="2334.08" fy="362.82" r="5.2" xlink:href="#radial-gradient-4"/>
    <radialGradient id="radial-gradient-8" cx="2334.08" cy="204.35" fx="2334.08" fy="204.35" r="6.66" gradientTransform="translate(804.99 -1881.14) rotate(69.3)" gradientUnits="userSpaceOnUse">
      <stop offset=".02" stop-color="#ff7c8b"/>
      <stop offset=".33" stop-color="#fc7a89"/>
      <stop offset=".46" stop-color="#f57785"/>
      <stop offset=".56" stop-color="#e9717f"/>
      <stop offset=".65" stop-color="#d76875"/>
      <stop offset=".72" stop-color="#bf5d68"/>
      <stop offset=".79" stop-color="#a34f58"/>
      <stop offset=".85" stop-color="#803e46"/>
      <stop offset=".9" stop-color="#592b30"/>
      <stop offset=".95" stop-color="#2d1618"/>
      <stop offset="1" stop-color="#000"/>
    </radialGradient>
    <radialGradient id="radial-gradient-9" cx="2393.25" cy="499.78" fx="2393.25" fy="499.78" r="6.66" xlink:href="#radial-gradient-8"/>
    <radialGradient id="radial-gradient-10" cx="1930.03" cy="927.72" fx="1930.03" fy="927.72" r="131.25" gradientTransform="translate(804.99 -1881.14) rotate(69.3)" gradientUnits="userSpaceOnUse">
      <stop offset=".46" stop-color="#95347d"/>
      <stop offset=".69" stop-color="#93337b"/>
      <stop offset=".77" stop-color="#8c3075"/>
      <stop offset=".82" stop-color="#802c6b"/>
      <stop offset=".87" stop-color="#6f265d"/>
      <stop offset=".91" stop-color="#591f4b"/>
      <stop offset=".94" stop-color="#3e1534"/>
      <stop offset=".98" stop-color="#1e0a19"/>
      <stop offset="1" stop-color="#000"/>
    </radialGradient>
    <radialGradient id="radial-gradient-11" cx="2061.63" cy="800.76" fx="2061.63" fy="800.76" r="65.62" gradientTransform="translate(785.65 -1900.41) rotate(69.3)" gradientUnits="userSpaceOnUse">
      <stop offset=".46" stop-color="#ff34c1"/>
      <stop offset=".66" stop-color="#fd33bf"/>
      <stop offset=".74" stop-color="#f632ba"/>
      <stop offset=".79" stop-color="#ea2fb1"/>
      <stop offset=".83" stop-color="#d92ca4"/>
      <stop offset=".86" stop-color="#c32794"/>
      <stop offset=".9" stop-color="#a8227f"/>
      <stop offset=".92" stop-color="#871b66"/>
      <stop offset=".95" stop-color="#62144a"/>
      <stop offset=".97" stop-color="#370b29"/>
      <stop offset="1" stop-color="#090106"/>
      <stop offset="1" stop-color="#000"/>
    </radialGradient>
    <radialGradient id="radial-gradient-12" cx="2219.62" cy="393.41" fx="2219.62" fy="393.41" r="30.59" gradientTransform="translate(804.99 -1881.14) rotate(69.3)" gradientUnits="userSpaceOnUse">
      <stop offset=".02" stop-color="#ff34c1"/>
      <stop offset=".33" stop-color="#b22486"/>
      <stop offset="1" stop-color="#000"/>
    </radialGradient>
    <radialGradient id="radial-gradient-13" cx="2257.15" cy="262.26" fx="2257.15" fy="262.26" r="16.08" xlink:href="#radial-gradient-12"/>
    <radialGradient id="radial-gradient-14" cx="1893.23" cy="1449.89" fx="1893.23" fy="1449.89" r="43.2" xlink:href="#radial-gradient-12"/>
    <radialGradient id="radial-gradient-15" cx="2011.27" cy="506.56" fx="2011.27" fy="506.56" r="16.08" xlink:href="#radial-gradient-12"/>
  </defs>
  <g class="cls-67">
    <g id="Layer_2">
      <g id="Layer_3">
        <g class="cls-80">
          <rect class="cls-1" y="-164.72" width="1561.79" height="878.5"/>
          <g>
            <ellipse class="cls-31" cx="377.93" cy="240.19" rx="111.13" ry="159.7" transform="translate(-61.95 156.34) rotate(-21.65)"/>
            <path class="cls-79" d="M310.46,173.97l57.33-22.75c14.31-5.68,30.44,1.89,35.22,16.53l57.85,177.38c2.34,7.16.33,15.03-5.18,20.17-9.48,8.83-26.09,20.87-46.78,21.67-7.26.28-14.09-3.47-17.69-9.79l-94.09-165.19c-8.03-14.1-1.73-32.03,13.35-38.02Z"/>
            <path class="cls-50" d="M317.61,179.99l49.11-19.49c12.26-4.86,26.26,2.07,30.56,15.14l52.1,158.36c2.1,6.4.48,13.36-4.21,17.86-8.06,7.73-22.22,18.21-40.04,18.66-6.25.16-12.19-3.27-15.37-8.92l-83.17-147.99c-7.1-12.63-1.9-28.49,11.02-33.61Z"/>
            <path class="cls-81" d="M316.8,167.51s7.42,5.42,29.67-4.91c22.26-10.33,19.56-14.55,19.56-14.55,0,0,5.36,4.37,2.85,8.05-2.5,3.68-15.11,10.25-22.73,13.34-7.62,3.1-32.96,10.65-29.35-1.93Z"/>
            <g>
              <g>
                <path class="cls-63" d="M381.33,291.09c3.23-1.73,9.28-3.63,14.89-4.38,6.19-.84,11.84-.28,12.53,3.52.08.45.03.87-.12,1.27-.71,6.62-4.1,10.82-4.28,15.24,3.16-1.69,6.81-3.38,10.7-4.71,17.29-5.93,2.94-24.27-4.9-27.43-2.04-.82-4.21-1.29-6.42-1.5-6.27-.59-12.84,1.01-17.77,3.24-.35.16-.7.32-1.04.48-6.17,2.89-10.94,5.79-8.26-1.29.15-.4.41-.81.75-1.24-1.99-.99-3.94-2.32-5.73-4.26-1.94-2.09-2.79-4.69-2.95-7.57-5.11,4.97-8.88,11.1-8.37,18.8,1.51,22.97,14.2,13.45,20.99,9.82Z"/>
                <path class="cls-58" d="M399.19,323.96c-.93-.74-1.85-1.6-2.71-2.77-6.67-9.06-4.17-14.42-2.02-22.29-7.86,3.08-15.99,7.04-15.74,14.37.42,12.63,10.24,16.34,20.47,10.69Z"/>
                <path class="cls-65" d="M404.39,307.73c.09,1.14.38,2.3,1.04,3.55,1.56,2.93,3.57,4.01,5.92,4.29,7.51-4.26,12.62-4.14,12.73-.65.03,1.54-3.97,5.55-8.68,10.77-9.63,10.68-22.27,26.41-9.66,36.35,0,0-9.75-12.55,8.21-24.47,5.13-3.4,9.65-6.53,13.41-9.49,3.28-2.58,5.95-5.04,7.91-7.43,3.66-4.48,4.81-8.74,2.5-13.23-4.5-8.76-19.25-7.86-33.38.31Z"/>
                <path class="cls-76" d="M387.88,177.89c-4.67-.92-5.89.05-12.57,8.88-6.75,8.92-12.25,14.17-9.59,22.65,5.57,2.78,13.13,6.98,17.1,11.03,17.81-8.83,13.15-15.01,12.15-27.77-.97-12.35-2.4-13.86-7.09-14.78Z"/>
                <path class="cls-71" d="M371.94,246.09c5.3-1.3,10.61-2.86,14.47-3.37,2.73-.36,4.74-.2,5.48.97,1.3,2.05-2.89,4.58-8.6,8.12-2.67,7.89-2.22,11.89,5.01,14.18,11.19-7.35,25.45-16.67,19.33-26.48-4.26-6.83-12.25-7.79-19.93-6.95-4.74.52-9.37,1.72-12.93,2.66-3.22.85-5.57,1.49-6.35,1.2-1.66-.6,1.54-4.71,4.81-8.34-.13-.13-.26-.28-.41-.4-2.52-2.06-5.29-3.94-7.93-5.58-6.19,5.59-15.26,15.35-12.33,22.41,2.12,5.1,10.73,3.7,19.38,1.57Z"/>
              </g>
              <g>
                <path class="cls-68" d="M435.27,320.65c-1.95,2.39-4.63,4.85-7.91,7.43.35.32.71.62,1.05,1.02,8.5,10.1,1.16,23.67-11.74,19.44,0,0,11.86,8.34,20.29-4.51,5.75-8.76,3.33-17.77-1.69-23.38Z"/>
                <path class="cls-72" d="M364.89,222.1c2.64,1.63,5.42,3.52,7.93,5.58.15.12.27.27.41.4,1.62,1.65,1.93,4.14,1.54,7.13,3.56-.94,8.19-2.14,12.93-2.66-.2-3.43-1.12-6.66-2.98-9.78-.46-.76-1.13-1.54-1.9-2.33-3.97-4.05-11.54-8.25-17.1-11.03-3.87-1.93-6.76-3.17-6.76-3.17-5.21-20.29-15.2-17.92-29.58-18.76-11.05-.64-12.58-.34-14.91,3.81-2.34,4.17-2.12,6.24,6.66,14.98,9.7,9.66,15.13,16.45,32.27,9.65,0,0,5.41,2.41,11.51,6.17Z"/>
                <path class="cls-51" d="M384.92,276.83c.34-.16.69-.32,1.04-.48,4.92-2.23,11.5-3.83,17.77-3.24-4.11-5.44-9.48-5.61-13.64-6.63-.64-.16-1.23-.32-1.79-.5-7.23-2.29-7.68-6.29-5.01-14.18.37-1.1.8-2.27,1.29-3.53.75-1.94,1.33-3.77,1.83-5.56-3.86.51-9.17,2.07-14.47,3.37-1.73,5.54-3.51,11.39-3.22,16.39.17,2.88,1.01,5.47,2.95,7.57,1.8,1.94,3.75,3.27,5.73,4.26,2.52,1.26,5.09,1.95,7.51,2.53Z"/>
                <path class="cls-74" d="M424.09,314.93c-4.78-.36-9.15,1.07-12.73.63-2.35-.28-4.36-1.35-5.92-4.29-.66-1.24-.95-2.41-1.04-3.55-.02-.33-.05-.66-.04-.99.18-4.43,3.57-8.62,4.28-15.24.04-.42.1-.83.12-1.27-.69-3.79-6.34-4.35-12.53-3.52.02.48.06.92.04,1.45-.17,4.22-.96,7.66-1.8,10.74-2.15,7.87-4.66,13.23,2.02,22.29.86,1.17,1.77,2.03,2.71,2.77,4.9,3.87,10.69,2.5,16.22,1.73,4.71-5.22,8.7-9.23,8.67-10.76Z"/>
              </g>
            </g>
            <path class="cls-12" d="M435.27,320.65c-1.95,2.39-4.63,4.85-7.91,7.43.35.32.71.62,1.05,1.02,8.5,10.1,1.16,23.67-11.74,19.44,0,0,9.27,6.49,17.24-.88-4.03,1.51-1.51-.71,1.04-8.68,2.56-8-7.16-10.51-2.82-12.98,4.26-2.43,7.72,3.89,7.84,4.11-.68-3.63-2.41-6.9-4.7-9.46Z"/>
            <path class="cls-12" d="M314.46,191.3c-2.34,4.17-2.12,6.24,6.66,14.98,9.7,9.66,15.13,16.45,32.27,9.65,0,0,5.41,2.41,11.51,6.17,2.64,1.63,5.42,3.52,7.93,5.58.15.12.27.27.41.4,1.62,1.65,1.93,4.14,1.54,7.13,3.56-.94,8.19-2.14,12.93-2.66-.09-1.56-.35-3.08-.76-4.57-2.21,7.45-6.77,1.26-13.19-3.94-6.43-5.21-15.3-7.75-16.41-12.17-1.11-4.42,6.9-3.18,6.91-3.18-3.11-1.51-5.3-2.45-5.3-2.45-2.68-10.43-6.63-14.86-11.79-16.82.24.16,5.45,3.65,3.59,4.35-1.9.72-14.76-1.36-14.76-1.36,0,0,17.8,3.04,19.8,9.35,2,6.3-2.94,9.5-2.94,9.5-5.06-11.24-15.4-8.58-20.72-7.84-5.32.74-14.16-2.36-16.38-7.95-2.21-5.56,5.13-8.16,5.18-8.18-3.75.23-4.95,1.29-6.48,4.02Z"/>
            <path class="cls-12" d="M386.41,242.71c-3.86.51-9.17,2.07-14.47,3.37-1.73,5.54-3.51,11.39-3.22,16.39.17,2.88,1.01,5.47,2.95,7.57,1.8,1.94,3.75,3.27,5.73,4.26,2.52,1.26,5.09,1.95,7.51,2.53.34-.16.69-.32,1.04-.48,4.92-2.23,11.5-3.83,17.77-3.24-3.1-4.11-6.92-5.21-10.4-5.94,5.76,1.44,2.69,3.57-3.54,5.15-6.23,1.58-14.39-2.63-17.02-6.74-2.63-4.11-1.23-18.2,5.22-19.53,6.45-1.32,5.67,4.7,5.67,4.7.31-.82.58-1.6.92-2.48.75-1.94,1.33-3.77,1.83-5.56Z"/>
            <path class="cls-12" d="M408.75,290.23c-.69-3.79-6.34-4.35-12.53-3.52.02.48.06.92.04,1.45-.17,4.22-.96,7.66-1.8,10.74-2.15,7.87-4.66,13.23,2.02,22.29.86,1.17,1.77,2.03,2.71,2.77,4.9,3.87,10.69,2.5,16.22,1.73,4.71-5.22,8.7-9.23,8.67-10.76-4.02-.3-7.75.65-10.97.7.12.07.33.1.63.08,4.61-.33,6.13,1.93,5.61,3.39-.52,1.46-7.42,6.19-14.82,2.95s-8.88-12.63-8.36-15.71c.52-3.07,2.14-16.94,6.79-17.79,4.62-.84,4.64,7.61,4.64,7.73.45-1.46.84-3.04,1.02-4.79.04-.42.1-.83.12-1.27Z"/>
            <path class="cls-5" d="M376.66,275.54c.15-.4.41-.81.75-1.24-1.99-.99-3.94-2.32-5.73-4.26-1.94-2.09-2.79-4.69-2.95-7.57-5.11,4.97-8.88,11.1-8.37,18.8,1.51,22.97,14.2,13.45,20.99,9.82,3.23-1.73,9.28-3.63,14.89-4.38,6.19-.84,11.84-.28,12.53,3.52,2.4-5.44-8.16-9.3-18.93-6.93-10.77,2.38-18.12,9.46-22.05,8.75-3.93-.71-7.43-10.78-4.42-16.56,3.01-5.78,9.6-2.69,10.42,1.76.82,4.45,3.69,2.67,3.69,2.67-1.63.2-2.15-.84-.81-4.38Z"/>
            <path class="cls-5" d="M418.45,297.88c-6.16,4.42-9.91.9-10.35-3.43-1.19,4.99-3.6,8.56-3.75,12.29,3.16-1.69,6.81-3.38,10.7-4.71,9.59-3.29,9.44-10.39,6.08-16.6,1.43,3.61,2.27,8.89-2.68,12.45Z"/>
            <path class="cls-5" d="M391.2,305.14c-4.65,8.58,2.53,15.08,2.53,15.08,0,0-10.05,1.55-12.67-6.01-2.11-6.07,2.67-9.9,4.65-11.19-4.14,2.53-7.14,5.75-6.99,10.24.42,12.63,10.24,16.34,20.47,10.69-.93-.74-1.85-1.6-2.71-2.77-6.67-9.06-4.17-14.42-2.02-22.29-.97.38-1.94.77-2.9,1.18,1.28-.2,2.02.65-.36,5.05Z"/>
            <path class="cls-5" d="M418.52,310.39c-4.03,1.23-12.11,4.06-11.81-.08.28-3.82,8.27-7.17,9.5-7.66-3.83,1.09-7.84,2.79-11.82,5.09.09,1.14.38,2.3,1.04,3.55,1.56,2.93,3.57,4.01,5.92,4.29,7.51-4.26,12.62-4.14,12.73-.65,1.29-2.43-1.53-5.76-5.57-4.53Z"/>
            <path class="cls-5" d="M435.63,318.19c-3.32,5.7-27.4,22.29-27.23,18.95.16-3.34,7.02-11.45,7.02-11.45-9.63,10.68-22.27,26.41-9.66,36.35,0,0-9.75-12.55,8.21-24.47,5.13-3.4,9.65-6.53,13.41-9.49,3.28-2.58,5.95-5.04,7.91-7.43,3.66-4.48,4.81-8.74,2.5-13.23-.21-.41-.46-.77-.72-1.14,1.72,3.46,1.85,6.27-1.43,11.91Z"/>
            <path class="cls-5" d="M388.37,177.99c.06.02,3.48,1,3.97,3.39.49,2.42-4.78,12.47-11.51,17.68-6.73,5.2-4.8,11.72-4.8,11.72-5.61-4.7.89-18.04.89-18.04-7.04,11.49-8.31,15.83-9.9,11.13-1.24-3.67,1.67-8.37,3.01-10.26-3.93,5.3-6.22,9.72-4.32,15.79,5.57,2.78,13.13,6.98,17.1,11.03,4.01-1.99,6.83-3.84,8.86-5.66-13.8,7.54-8.93-8.55-3.39-15.88,5.39-7.14,7.69,2.87,7.82,3.46-.27-2.83-.86-5.97-1.15-9.69-.93-11.91-2.3-13.74-6.6-14.68Z"/>
            <path class="cls-5" d="M372.82,227.68c-2.52-2.06-5.29-3.94-7.93-5.58-6.19,5.59-15.26,15.35-12.33,22.41,2.12,5.1,10.73,3.7,19.38,1.57,5.3-1.3,10.61-2.86,14.47-3.37,2.73-.36,4.74-.2,5.48.97.96,1.52-1.1,3.31-4.56,5.57,3.55-2.31,8.63-5.82,8.87-7.19.38-2.11-3.68-5.74-18.91-.73-15.22,5.01-21.13,3.33-22.09-.96-.96-4.3,6.24-13.51,10.44-13.78,4.2-.26,3.91,5.93,3.91,5.93,1-1.39,2.32-2.95,3.66-4.45-.13-.13-.26-.28-.41-.4Z"/>
            <path class="cls-5" d="M384.81,261.18c-3.58-2.88-.88-9.77-.88-9.77,0,0,1.29-.79,3.04-1.91-1.11.72-2.34,1.48-3.66,2.3-2.67,7.89-2.22,11.89,5.01,14.18,5.96-3.91,12.75-8.38,16.91-13.19-4.22,4.4-17.08,11.07-20.41,8.39Z"/>
            <path class="cls-6" d="M380.4,211.19s-5.26-7.08,8.41-15.31c0,0-6.15,5.9-8.41,15.31Z"/>
            <path class="cls-8" d="M329.92,206.08s5.8,7.75,16.14,3.42c0,0-5.91,11.04-16.14-3.42Z"/>
            <path class="cls-11" d="M428.14,378.43c10.78-3.68,30.26-17.26,30.13-29.71-.13-12.45-59.01,12.24-61.17,23.13-2.16,10.9,11.21,13.34,31.04,6.58Z"/>
            <path class="cls-6" d="M318.58,189.52s3.57-1.81,3.72-.74c.15,1.07-3.72.74-3.72.74Z"/>
            <path class="cls-6" d="M389.02,180.09s-.24,3.16-1.37,3.62c-1.13.46-.77-1.85,1.37-3.62Z"/>
            <path class="cls-6" d="M383.93,179.3s-1.37,1.26-2.19,1.32c-.82.06,1-1.03,2.19-1.32Z"/>
            <path class="cls-46" d="M379.07,234.12c-9.36,2.62-19.89,6.33,1.21,4.2,21.1-2.14,15.31-8.82-1.21-4.2Z"/>
            <path class="cls-44" d="M387.5,200.03c-3.17,5.33-4.52,10.8-1.34,11.51,3.18.7,9.37-9.61,6.98-12.69-2.39-3.07-3.97-1.63-5.64,1.18Z"/>
            <path class="cls-43" d="M391.16,246.67s-10.7,5.92-6.82,11.61c3.88,5.69,30.25-24.08,6.82-11.61Z"/>
            <path class="cls-38" d="M395.79,273.42c-7.59,1.33-23.08,7.43-1.02,6.8,22.06-.63,14.64-9.18,1.02-6.8Z"/>
            <path class="cls-41" d="M370.95,212.16s-7.64-4.84-9.58-.77c-1.94,4.07,19.58,14.62,20.44,12.22.86-2.4-2.36-6.64-10.86-11.45Z"/>
            <path class="cls-26" d="M382.04,256.4c.91-4.34-2.25-9.42-6.38-2.9-4.13,6.51,3.5,16.26,8.83,14.83,5.33-1.43-.58-4.58-.58-4.58,0,0-2.99-2-1.87-7.34Z"/>
            <path class="cls-28" d="M371.89,194.46c2.1.57,7.11-4.88,7.11-4.88,0,0-4.68,7.52-1.24,8.35,2.07.5,6.75-2.66,10.24-6.77,2.3-3.37,3.88-6.69,4.27-8.62.03-.49.02-.95-.02-1.39-.65-2.22-3.82-3.15-3.89-3.17-.16-.04-.32-.07-.49-.11-2.77-.54-4.33-.41-6.52,1.6l-3.47,3.92s-.06.07-.09.11c-.65.85-7.92,10.4-5.91,10.95Z"/>
            <path class="cls-39" d="M323.06,191.86c-1.73,5.97,18.95,12.4,24.92,10.22,5.92-2.16,1.7-5.58-2.15-7.14-4.94-1.7-9.83-2.55-9.83-2.55,0,0,12.86,2.08,14.76,1.36,1.86-.7-3.35-4.19-3.59-4.35-4.3-1.64-9.45-1.58-15.41-1.82-3.72.21-7.8,1.16-8.69,4.26Z"/>
            <path class="cls-20" d="M370.58,150.29c.91-.25,1.82-.45,2.73-.6-.07.09-6.11,13.37-33.75,28.07,8.45-4.13,26.98-12.08,33.76-6.03,8.89,7.94,85.49,196.14,59.62,90.65-2.12-7.77-4.54-16.14-7.27-25.16l4.2,12.88s-26.85-82.34-26.85-82.34c-4.47-13.69-18.88-21.2-32.43-17.46Z"/>
            <path class="cls-34" d="M350.96,187.04c1.16-6.71,11.8-21.24,18-21.12,6.2.12-6.89,33.41-13.77,29.72-5.31-2.85-4.78-5.45-4.23-8.6Z"/>
            <path class="cls-34" d="M370.83,185.24c-3.24-4.43,2.99-12.65,5.85-13.96,2.87-1.31,2.8,25.81-5.85,13.96Z"/>
            <path class="cls-69" d="M317.61,179.99l49.11-19.49c12.26-4.86,26.26,2.07,30.56,15.14l52.1,158.36c2.1,6.4.48,13.36-4.21,17.86-8.06,7.73-22.22,18.21-40.04,18.66-6.25.16-12.19-3.27-15.37-8.92l-83.17-147.99c-7.1-12.63-1.9-28.49,11.02-33.61Z"/>
            <path class="cls-15" d="M397.53,168.3c-9.4-5.86-24.28-10.75-28.81-12.17,3.43-3.94,4.56-6.4,4.6-6.43-1.85.31-3.7.81-5.52,1.53l-57.33,22.75c-15.08,5.98-21.38,23.92-13.35,38.02l94.09,165.19c3.6,6.31,10.43,10.07,17.69,9.79,20.69-.8,37.3-12.83,46.78-21.67,5.52-5.14,7.52-13.01,5.18-20.17l-35.2-107.91c57.3,194.47-47.07,67.88-71.15,22.3-24.07-45.58-48.17-66.05-23.73-77.4,16.96-7.87,27.42-15.67,33.73-21.64,5.53,4.01,22.79,16.31,34.65,22.32,14.29,7.24-1.89-7.16-1.89-7.16,0,0,11.44-.37.25-7.34Z"/>
            <g>
              <path class="cls-81" d="M365.39,156.54s24.45,29.35,79.54,30.34c0,0,4-2.72,2.11-5.57,0,0-53.01.88-78.83-25.99l-2.82,1.23Z"/>
              <path class="cls-81" d="M366.38,153.31s14.72,26.64,74.86,14.53c0,0,.32-5.11-3.38-5.66,0,0-46.58,13.36-68.7-10.08l-2.77,1.2Z"/>
              <path class="cls-81" d="M420.22,132.69c-32.88.04-52.21,19.91-52.21,19.91,0,0,17.42,17.69,39.02,10.24,21.6-7.45,46.06-30.19,13.19-30.15ZM410.6,157.62c-21.73,8.15-39.13-5.02-39.13-5.02,0,0,23.47-13.75,43.51-15.03,20.04-1.28,17.35,11.91-4.38,20.06Z"/>
              <path class="cls-81" d="M390.13,96.74c-10.68,8.32-23.75,56.57-23.75,56.57l.55,1.26c44.03-35.35,33.88-66.15,23.2-57.83ZM369.03,150.42s14.03-40.23,21.32-43.84c7.29-3.6,3.29,21.9-21.32,43.84Z"/>
              <path class="cls-17" d="M387.28,162.82c-3.25-1.11-7.55-2.81-10.24-4.87-1.89-1.45-.02-1.42,2.9-.86-5.3-2.11-8.47-4.5-8.47-4.5,0,0,8.47-4.94,19.55-9.18-4.36,1.15-8.21,1.94-9.11,1.4-2-1.19,6.56-5.31,9.03-6.46-5.46,2.19-10.06,4.7-13.63,7.01,3.73-3.66,6.85-7.23,9.52-10.68-2.47,2.72-17.55,19.14-5.14,2.01.26-.35.47-.68.71-1.03-3.53,4.86-7.92,9.88-13.37,14.75,0,0,3.45-9.9,7.82-20.31-7.14,12.78.1-8.31,2.99-16.43-5.48,12.71-10.31,28.65-12.37,35.8-.75-.87-1.43-1.43-1.43-1.43,0,0,.66,1.05-1.41,3.37,1.12.83,2.1,2.36.76,5.12-2.41,4.94-30.7,16.49-34,15.65-3.31-.84.72-4.38.72-4.38-11.2,2.67-15.3-.3-15.3-.3-3.62,12.58,21.73,5.03,29.35,1.93,6.37-2.59,16.19-7.59,20.72-11.31,2.37,2.41,7.76,7.32,16.3,12.41-12.34-8.97-8.78-8.33-4.36-6.59-.25-.17-.53-.31-.78-.48.45.25.93.49,1.4.73,2.12.87,4.22,1.87,4.78,2.14.04.01.07.03.1.04-13.74-7.92-3.58-5.48,2.96-3.56Z"/>
              <path class="cls-66" d="M324.44,169.93c10.12-.9,26.13-4.36,38.88-16.5,4.46-4.24,6.19-10.63,4.75-16.61l-3.22-13.38c-1.23-5.1-6.77-7.86-11.58-5.76l-49.9,21.78c-5.12,2.23-6.69,8.74-3.16,13.06l9,11.03c3.7,4.54,9.4,6.9,15.24,6.38Z"/>
              <path class="cls-15" d="M300.21,152.53l9,11.03c3.7,4.54,9.4,6.9,15.24,6.38,10.12-.9,26.13-4.36,38.88-16.5,4.46-4.24,6.19-10.63,4.75-16.61l-.22-.93c2.99,12.45-4.52,17.54-15.63,22.88-11.11,5.34-15.29-12.54-15.29-12.54,0,0-7.26,3.34-8.8-.42-1.54-3.76,7.96-5.98,7.96-5.98l1.21-3.55s12.12-3.53,16.68-7.01c4.55-3.48,5.83-8.86,1.88-8.04-3.95.82-9.92,4.31-9.92,4.31l-9.69-.42-32.88,14.35c-5.12,2.23-6.69,8.74-3.16,13.06Z"/>
              <path class="cls-15" d="M307.43,146.49s-4.19.38-3.61-2.65c.57-3.03,24.78-9.46,24.78-9.46l-21.17,12.11Z"/>
              <path class="cls-24" d="M355.86,121.22c3.95-.82,2.67,4.56-1.88,8.04-1.24.94-3.03,1.89-4.99,2.77-.28.79-.41,1.28-.41,1.28,0,0-5.73,2.97-3.09,5.61,2.64,2.64,13.45-5.34,13.45-5.34,0,0,9.93,9.62,7.31,15.17,2.19-3.29,2.93-7.35,1.61-12.86l.22.93-3.22-13.38c-.92-3.85-4.3-6.35-7.97-6.46,1.37.09,2.24.92-1.03,4.24Z"/>
              <g>
                <path class="cls-56" d="M290.51,114.96s7.26.54,11.42-3.21c4.16-3.75-.05-4.47-.05-4.47l29.95-5.52,18.67,5.97s-4.16,3.24-2.2,5.83c1.96,2.59,4.35-.42,4.35-.42,0,0-8.64,8.23.78,12.76,0,0-.61,4.7-17.01,6.75-16.4,2.05-19.17,11.57-19.17,11.57,0,0-4.87,2.37-10.33,1.33,0,0,2.29-3.19-1.74-5.33,0,0-.46-3.52-3.12-2.21,0,0,3-1.86,2.76-6.26-.25-4.39-5.77-.89-5.77-.89l-3.42-10.51-5.11-5.39Z"/>
                <path class="cls-52" d="M337.52,121.76c2.08-5.86,8.51-6.04,10.51-5.95-1.34-.15-4.34-.85-3.31-4.2.92-3,4.02-3.72,5.78-3.88l-1.82-11.28s-16.53-.83-46.8,10.84c4.43-.61,12.01,4.03,2.95,9.42-4.99,2.97-10.43.81-14.32-1.73l8.53,15.9c.82-2.08,2.71-4.99,6.82-4.02,6.2,1.47-1.54,10.26-1.54,10.26,0,0,3.1-3.03,5.71-.69,2.26,2.02,1.03,8.47-3.12,9.13l.51.95s27.9-1.34,46.55-17.23l-.54-3.37c-5.83,5.46-18.38,2.83-15.91-4.13Z"/>
                <path class="cls-75" d="M320.75,113.45c-3.75.93-5.72,10.58,3.22,8.12,3.88-1.07.53-9.04-3.22-8.12Z"/>
                <path class="cls-75" d="M339.82,105.85c-4.08-5.09-18.76,1.29-11.44,7,5.95,4.64,15.52-1.91,11.44-7Z"/>
                <g>
                  <path class="cls-15" d="M352.65,113.14s-.18.17-.44.46c.27-.26.44-.46.44-.46Z"/>
                  <path class="cls-15" d="M325.23,135.97c-5.37-6.5-13.25-26.37-13.25-26.37,7.57-3.3,14.01-5.82,19.29-7.74,11.43-4.14,17.41-5.42,17.41-5.42,0,0-16.53-.83-46.8,10.84,0,0,4.22.72.05,4.47-4.16,3.75-11.42,3.21-11.42,3.21l8.53,15.9s5.53-3.51,5.77.89c.25,4.39-2.76,6.26-2.76,6.26,2.66-1.32,3.12,2.21,3.12,2.21,4.03,2.14,1.74,5.33,1.74,5.33l.51.95s27.9-1.34,46.55-17.23l-.54-3.37c-.51.48-1.09.88-1.69,1.23-1.16.83-14.45,8.51-26.51,8.84Z"/>
                </g>
              </g>
            </g>
          </g>
          <circle class="cls-30" cx="458.28" cy="274.53" r="551.6"/>
          <g>
            <ellipse class="cls-35" cx="484.59" cy="301.48" rx="231.22" ry="160.9" transform="translate(46.33 667.05) rotate(-71.72)"/>
            <path class="cls-3" d="M529.91,100.05s-25.67,87.06-44.91,98.92c-19.24,11.86-76.02,34.43-95.13,72.11-15.99,31.52-11.92,157.71-10.17,198.08.36,8.17,4.52,15.66,11.29,20.24,14.93,10.1,43.16,26.61,69.41,27.73,8.87.38,17.21-4.17,22.11-11.58,19.88-30.04,76.77-118.14,87.42-158.11,12.94-48.6-20.8-94.41-17.69-128.04,3.11-33.63,32.95-101.09,32.95-101.09l-55.29-18.26Z"/>
            <path class="cls-49" d="M414.57,257.4s26.99-21.68,48.69-26.84c21.7-5.16,19.47,7.1,38.38,12.68,18.91,5.58,28.41,5.05,31.3.34,2.89-4.71,9.25,3.06,9.25,3.06,0,0,10.66,30.49,7.26,30.71-3.41.22-75.55-5.97-81.07-5.62-5.51.36-53.81-14.33-53.81-14.33Z"/>
            <path class="cls-73" d="M512.03,195.23c6.27-5.23,20.1,10.64,11.11,15.89-8.99,5.25-24.29-4.91-11.11-15.89Z"/>
            <path class="cls-73" d="M533.59,187.91c-4.34-2.74-1.13-8.81,3.75-8.09,4.87.72,4.38,13.22-3.75,8.09Z"/>
            <path class="cls-7" d="M416.75,498.14c-20.44-10.25-59.78-49.07,12.53-27.85,72.31,21.22,49.8,59.11-12.53,27.85Z"/>
            <path class="cls-60" d="M434.14,480.55c49.35,13.63,117.45-103.4,126.84-142.28,7.25-30.03-7.96-68.74-17.65-89.56-4.36-8.73-11.98-14.45-7.79-.25,4.2,14.2-12.79,15.85-11.75,5.97,1.04-9.88-1.13-24.81-9.68-27.19-8.55-2.38-14.48,22.32-43.12,16.19-28.18-6.04-55.57,13.35-56.43,13.97-7.18,6.94-13.28,15.5-17.65,26.68-17.21,44.04-12.12,182.84,37.22,196.47Z"/>
            <path class="cls-14" d="M401.4,287.33c-13.01,36.31-18.31,89.63,6.73,74.06,25.05-15.57,58.97,5.47,43.48,20.1-15.49,14.63-21.57-10.03-17.56-10.05,0,0-14.88,15.96.07,20.9,14.95,4.94,23.06-4.83,26.71,11.04,3.64,15.87-64.52,3.13-41.62-30.63,0,0-9.02,17.12-20.99-.44,0,0-15.8,15.55,4.14,29.17,19.94,13.62,39.12,1.29,42.77,19.83,3.65,18.54-20.7-3.67-33.86-5.11-13.16-1.44-4.57,39.07,13.72,50.45,18.29,11.37,42.65,10.15,40.1-4.28-2.55-14.42-21.92-23.69-24.09-12.09,0,0,8.9-8.67,16.26,9.5,7.36,18.18-30.47-5.87-26.49-15.22,3.98-9.35,27.02-5.17,30.72,1.29,0,0,.72-12.08,9.01-10.09,8.29,1.99.42,28.53.42,28.53,0,0,7.65-15.62,18.72-15.24,11.06.38,27.39-53.22-4.32-47.97-31.71,5.25,4.11,38.08,9.8,16.8,0,0-8.43,4.17-13.84-4.57s22.27-8.82,15.9,11.8c-6.37,20.62-35.53-2.91-32.48-10.73,3.05-7.82,10.04-30.39,22.74-27.09,12.7,3.3,33.15,17.85,22.1,35.36,0,0,38.62-39.74,15.66-63.32-22.95-23.58-36.9,5.31-36.9,5.31,0,0,14.12-11.94,26.22-2.83,12.1,9.11-27.95,19.87-35.82,10.16-7.87-9.71,12.15-56.87,47.56-37.61,35.41,19.25,28.62-75.86-1.39-71.11-30.01,4.75-12.07,44.45-12.07,44.45,0,0-4.13-24.4,9.6-23.9,13.74.5,24.9,29.07,16.04,35.48-8.86,6.4-40.14-2.12-34.32-24.22,0,0-27.77,34.37-44.22,20.94-16.45-13.43,3.08-48.33,18.82-48.9,15.74-.56,15.78,14.11,8.87,24.27-6.91,10.16-9.72-12.59-9.72-12.59,0,0-19.87,21.19-2.77,24.83,17.1,3.63,39.02-33.28,31.62-47.93-7.4-14.65-43.75,14.67-58.57,8.44-14.83-6.23-15.91-12.38-15.91-12.38,0,0,15.19,25.32,3.19,38.76-12,13.44-10.65-29.64-10.65-29.64,0,0-24.41,33.89-1.45,45.6,22.96,11.7,41.36,14.59,18.66,28.46-22.7,13.87-52.21-3.07-37.17-12.28,15.04-9.21,22.04,7.28,22.04,7.28,0,0,4.52-23.89-21.01-17.12,0,0,1.22-41.37-4.47-25.47Z"/>
            <path class="cls-70" d="M546.22,84.32s-23.93,106.74-56.09,129.44c-32.16,22.7-76,26.27-93.21,70.31-17.21,44.04-12.12,182.84,37.22,196.47,49.35,13.63,118.46-100.76,126.84-142.28,11.55-57.22-24.74-94.61-20.2-120.44,4.53-25.83,41.62-117.91,41.62-117.91l-36.17-15.6Z"/>
            <path class="cls-54" d="M517.94,294.87c1.81-9.48-11.29-31.44-17.9-27.47-6.61,3.97,16.04,37.21,17.9,27.47Z"/>
            <path class="cls-16" d="M529.91,100.05s-25.67,87.06-44.91,98.92c-19.24,11.86-76.02,34.43-95.13,72.11-15.99,31.52-11.92,157.71-10.17,198.08.36,8.17,4.52,15.66,11.29,20.24,14.93,10.1,43.16,26.61,69.41,27.73,8.87.38,17.21-4.17,22.11-11.58,11.92-18.02,37.16-56.93,57.75-93.81-77.88,129.57-151.94,75.57-132.93-45.58,19.01-121.16,74.7-106.41,98.2-149.31,23.5-42.89,33.25-86.33,33.25-86.33,26.19,14.43,38.57,6.47,38.57,6.47,4.52-11.2,7.83-18.69,7.83-18.69l-55.29-18.26Z"/>
            <path class="cls-18" d="M423.65,286.16s-18.53,55.78-14.88,112.59c0,0,34.84,29.12,86.48,38.18,0,0,27.65-29.3,31.21-44.12,0,0-30.24-7.33-55.59-67.8-25.35-60.47-47.22-38.84-47.22-38.84Z"/>
            <path class="cls-64" d="M426.16,284.15s-18.53,55.78-14.88,112.59c0,0,34.84,29.12,86.48,38.18,0,0,27.65-29.3,31.21-44.12,0,0-30.24-7.33-55.59-67.8-25.35-60.47-47.22-38.84-47.22-38.84Z"/>
            <path class="cls-59" d="M438.17,280.15s10.2-16.67,36.74-22.33c26.53-5.66,30.55-3.69,43.29,9.2,12.74,12.88,32.79,41.17,30.23,67.99-2.56,26.82-23.31,46.93-39.2,37.19-15.89-9.74-71.05-92.05-71.05-92.05Z"/>
            <path class="cls-15" d="M494.46,344.84c-3.13-3.57-2.85-15.94,5.94-25.36,8.79-9.43,24.28-18.98,27.6-12.88,3.32,6.1-5.03,25.33-10.72,32.45-5.68,7.12-19.13,10.01-22.82,5.79Z"/>
            <path class="cls-15" d="M478.26,334.28s5.42,3.76,6.39-7.26c.97-11.01-2.24-38.4-9.73-38.86-5.5-.34-15.96,13.02-13.53,24.51,2.44,11.49,16.87,21.6,16.87,21.6Z"/>
            <path class="cls-15" d="M541.33,314.22c-5.98-3.82-6.9-17.14-6.9-17.14-2.81,14.09,4.02,22.19,4.02,22.19,0,0-17.98,14.98-6.04,24.78,11.94,9.79-2.42,30.53-11.26,27.61s-2.91-13.96-10.72-15.54c-6.84-1.38-9.28,6.35-9.78,8.3,3.43,3.69,6.39,6.45,8.58,7.79,15.89,9.73,36.64-10.38,39.2-37.19,1.25-13.13-2.93-26.6-9-38.45.4,1.1,7.72,21.38,1.9,17.67Z"/>
            <path class="cls-15" d="M438.17,280.15s13.81,20.62,29.61,42.43l-6.19-13.42s-18.5-22.61-8.11-20.03c10.4,2.58,18.08-10.17,18.08-10.17,0,0-26,2.32-14.64-9.09,11.24-11.28,33.88-14.75,34.37-14.82-4.35.4-9.64,1.34-16.39,2.78-26.53,5.66-36.74,22.33-36.74,22.33Z"/>
            <path class="cls-77" d="M494.46,344.84c-3.13-3.57-2.85-15.94,5.94-25.36,8.79-9.43,24.28-18.98,27.6-12.88,3.32,6.1-5.03,25.33-10.72,32.45-5.68,7.12-19.13,10.01-22.82,5.79Z"/>
            <path class="cls-53" d="M478.26,334.28s5.42,3.76,6.39-7.26c.97-11.01-2.24-38.4-9.73-38.86-5.5-.34-15.96,13.02-13.53,24.51,2.44,11.49,16.87,21.6,16.87,21.6Z"/>
            <path class="cls-15" d="M499.1,341.3c4.98,1.06,16.76-6.38,21.73-21.4,4.95-14.96,1.12-14.92,1.09-14.91-6.24,1.46-15.47,8.01-21.52,14.5-3.08,3.3-5.06,6.96-6.27,10.47,0,.59.14,10.32,4.97,11.35Z"/>
            <path class="cls-15" d="M477.1,289.19c-2.52.63-5.27,2.92-7.83,8.56-7.47,16.49,10.95,40.45,15.37,29.27.87-9.87-1.63-32.83-7.55-37.83Z"/>
            <path class="cls-9" d="M500.4,319.48c6.05-6.49,15.28-13.04,21.52-14.5-20.59-12.52-17.01.55-25.69-1.43-8.69-1.98-3.82-9.93-8.63-12.18-4.81-2.26-10.5-2.17-10.5-2.17,5.92,5,8.42,27.96,7.55,37.83,12.43-20.36,8.62,5.78,8.62,5.78,1.05-4.36,3.21-9.12,7.13-13.33Z"/>
            <path class="cls-4" d="M532.41,344.05c11.94,9.79-2.42,30.53-11.26,27.61s-2.91-13.96-10.72-15.54c-6.84-1.38-9.28,6.35-9.78,8.3,3.43,3.69,6.39,6.45,8.58,7.79,15.89,9.73,36.64-10.38,39.2-37.19.19-1.97.22-3.94.17-5.91-1.03,9.39-6.15,18.32-12.15,12.29-8.13-8.18,2-22.11,2-22.11l-6.54,7.26c-3.57,5.17-6.07,12.12.5,17.51Z"/>
            <path class="cls-36" d="M474.25,270.84c5.26,13.4,45.44,31.01,51.94,30.49,6.48-.52,8.03-15.46-4.07-30.08-1.35-1.53-2.68-2.98-3.92-4.23-9.5-9.6-14.16-13.14-26.9-11.98-.01,0-22.31,2.4-17.05,15.8Z"/>
            <path class="cls-2" d="M437.46,294.52s-11.62,17.64,8.11,63.14c19.74,45.5,19.65,44.84,25.1,43.31,5.45-1.53,43.74-20.57,43.74-20.57,0,0-53.42-66.93-57.24-72.7-3.82-5.77-19.7-13.18-19.7-13.18Z"/>
            <path class="cls-15" d="M523.11,388.31c-10.02-5.28-31.18-21.06-49.74-65.33-25.35-60.47-47.22-38.84-47.22-38.84,0,0-12.66,38.17-14.98,83.5.11-.36,9.14-31,38.13-26.39,29.16,4.63,63.92,70.1,48.44,93.65,0,0,14.08-14.95,23.44-28.89l1.92-17.71Z"/>
            <path class="cls-78" d="M482.95,339.04s4.32-9.68,4.07-2.54c0,0,4.79-6.42.32,7.44-4.47,13.86-4.39-4.89-4.39-4.89Z"/>
            <path class="cls-15" d="M482.95,339.04s4.32-9.68,4.07-2.54c0,0,4.79-6.42.32,7.44-4.47,13.86-4.39-4.89-4.39-4.89Z"/>
            <path class="cls-48" d="M371.83,283.34s22.94-23.05,57.99-15.15c0,0,34.36,24.08,47.76,56.19,13.4,32.11,58.56,67.89,58.56,67.89,0,0,4.73,19.2-6,37.18,0,0-12.84-10.41-23.23-38.5-10.38-28.09-49.81-76.44-65.25-86.21-15.44-9.77-30.49-2.3-69.84-21.4Z"/>
            <path class="cls-21" d="M569.95,347.45c12.94-48.6-20.8-94.41-17.69-128.04,2.99-32.33,30.66-95.89,32.8-100.76l-24.14-4.15s-32.18,103.05-44.69,127.21c-12.14,23.46-46.03,22.3-59.05,83.91-13.02,61.61,25.17,160.23,95.7,62.56,7.95-15.68,14.19-29.95,17.06-40.72Z"/>
            <path class="cls-55" d="M562.45,311.19c-7.26,1.19-49.56-22.69-33.15-38.25,16.42-15.56,55.58,34.57,33.15,38.25Z"/>
            <path class="cls-15" d="M511.82,390.46c-6.71-11.77-4.83-11.15-42.6-62.28-37.77-51.13-78.96-40.75-69.61-52.55,8.12-10.24,24.9-8.31,29.19-7.62-34.46-7.21-56.96,15.33-56.96,15.33,39.35,19.1,54.4,11.64,69.84,21.4,15.44,9.77,54.87,58.12,65.25,86.21,10.38,28.09,23.23,38.5,23.23,38.5,8.77-14.71,7.21-30.21,6.35-35.38-.92,38.38-18,8.09-24.68-3.62Z"/>
            <polygon class="cls-82" points="436.43 358.67 462.08 349.93 454.83 346.58 433.72 354.77 437.6 343.02 416.08 363.78 445.16 365.05 436.43 358.67"/>
            <path class="cls-19" d="M515.53,142.85s11.37,24.66,49.76,21.68l-49.76-21.68Z"/>
            <path class="cls-81" d="M527.97,69.08l-6.15,24.44c-1.9,7.54,1.19,15.4,7.64,19.74,10.31,6.93,27.05,16.14,45.28,17.92,7.9.77,15.37-3.82,18.46-11.14l9.62-22.77c2.84-6.72,1.53-14.56-3.6-19.76-8.15-8.26-23.83-19.03-51.78-22.2-8.98-1.02-17.28,4.99-19.48,13.76Z"/>
            <path class="cls-10" d="M538.14,104.41c.32-6.69,2.77-36.28,19.6-35.35,16.83.94,45.54,15.04,45.56,15.05-.84-2.43-2.19-4.7-4.07-6.6-8.15-8.26-23.83-19.03-51.78-22.2-8.98-1.02-17.28,4.99-19.48,13.76l-6.15,24.44c-1.9,7.54,1.19,15.4,7.64,19.74,10.31,6.93,27.05,16.14,45.28,17.92,5.68.56,11.11-1.7,14.88-5.71-21.32,4.41-51.8-14.37-51.48-21.06Z"/>
            <path class="cls-81" d="M517.99,136.09s2.04,9.57,27.05,17.16c25,7.59,25.86,2.32,25.86,2.32,0,0,1.15,7.27-3.45,8.42-4.6,1.15-19.27-2.59-27.52-5.54-8.25-2.95-33.73-14.93-21.93-22.36Z"/>
            <path class="cls-81" d="M564.35,161.86s-1.41,40.66,41.63,80.53c0,0,5.11.68,5.63-2.93,0,0-42.71-36.92-44.15-76.57l-3.11-1.03Z"/>
            <path class="cls-81" d="M567.43,160s-7.21,31.6,49.13,64.65c0,0,3.87-3.83,1.33-6.89,0,0-46.47-22.44-47.41-56.75l-3.06-1.01Z"/>
            <path class="cls-81" d="M624.82,181.83c-26.13-23.3-55.58-21.24-55.58-21.24,0,0,1.28,26.41,23.72,35.82,22.44,9.41,58,8.72,31.86-14.58ZM599.49,194.8c-23.04-8.95-27.5-31.75-27.5-31.75,0,0,28.39,5.74,45.21,18.93,16.83,13.2,5.33,21.77-17.71,12.82Z"/>
            <path class="cls-81" d="M626.44,131.93c-14.38-.97-59,28.07-59,28.07l-.46,1.39c60.05,3.17,73.84-28.49,59.46-29.46ZM571.59,159.58s39.69-21.99,48.03-19.68c8.35,2.31-12.93,19.72-48.03,19.68Z"/>
            <path class="cls-13" d="M577.28,182.38c-1.8-3.19-4-7.58-4.67-11.13-.47-2.5.99-1.14,2.91,1.38-2.71-5.44-3.53-9.58-3.53-9.58,0,0,10.23,2.08,22.04,6.59-4.28-2.18-7.89-4.29-8.23-5.36-.74-2.37,8.98.44,11.75,1.28-5.88-2.14-11.32-3.41-15.8-4.1,5.56-.26,10.57-.88,15.14-1.73-3.89.4-27.52,2.75-5.51-2.05.45-.1.85-.21,1.29-.31-6.25,1.35-13.3,2.23-21.08,2.22,0,0,9.76-5.41,20.62-10.58-14.74,5.08,5.98-6.52,14.03-10.93-13.38,6.2-28.52,15.44-35.23,19.65.02-1.22-.12-2.15-.12-2.15,0,0-.22,1.3-3.51,1.68.3,1.46,0,3.37-3.03,4.6-5.42,2.21-36.08-8.69-38.11-11.7-2.03-3.01,3.68-2.97,3.68-2.97-10.79-5.82-11.94-11.09-11.94-11.09-11.8,7.43,13.68,19.41,21.93,22.36,6.89,2.46,18.24,5.46,24.48,5.72.17,3.6.96,11.32,4.14,21.42-3.44-15.88-1.06-12.85,1.21-8.33-.08-.31-.2-.62-.28-.93.18.51.39,1.05.59,1.58,1.07,2.19,2.03,4.48,2.28,5.09-5.24-15.93,1.1-6.78,4.93-.62Z"/>
          </g>
          <g>
            <g>
              <path class="cls-62" d="M1224.93,173.5c-.86.71-.97,1.99-.26,2.84.71.86,1.99.97,2.84.26.86-.71.97-1.99.26-2.84-.71-.86-1.99-.97-2.84-.26Z"/>
              <path class="cls-62" d="M621.39,227.32c-.86.71-.97,1.99-.26,2.84.71.86,1.99.97,2.84.26.86-.71.97-1.99.26-2.84-.71-.86-1.99-.97-2.84-.26Z"/>
              <path class="cls-62" d="M126.47,212.16c-1.33,1.11-1.51,3.09-.4,4.42s3.09,1.51,4.42.4c1.33-1.11,1.51-3.09.4-4.42-1.11-1.33-3.09-1.51-4.42-.4Z"/>
              <path class="cls-62" d="M145.61,482.92c-1.32,1.1-1.49,3.05-.4,4.37,1.1,1.32,3.06,1.49,4.37.39,1.32-1.1,1.49-3.06.39-4.37-1.1-1.32-3.05-1.49-4.37-.39Z"/>
              <path class="cls-62" d="M1376.81,113.79c-.86.71-.97,1.99-.26,2.84.71.86,1.99.97,2.84.26.86-.71.97-1.99.26-2.84-.71-.86-1.99-.97-2.84-.26Z"/>
              <path class="cls-62" d="M672.36,80.82c-.86.71-.97,1.99-.26,2.84.71.86,1.99.97,2.84.26.86-.71.97-1.99.26-2.84-.71-.86-1.99-.97-2.84-.26Z"/>
              <path class="cls-62" d="M580.46,111.72c-.86.71-.97,1.99-.26,2.84.71.86,1.99.97,2.84.26.86-.71.97-1.99.26-2.84-.71-.86-1.99-.97-2.84-.26Z"/>
              <path class="cls-62" d="M1107.64,105.44c-.86.71-.97,1.99-.26,2.84.71.86,1.99.97,2.84.26.86-.71.97-1.99.26-2.84-.71-.86-1.99-.97-2.84-.26Z"/>
              <path class="cls-62" d="M441.29,141.16c-1.32,1.1-1.49,3.05-.39,4.37,1.1,1.32,3.05,1.49,4.37.39,1.32-1.1,1.49-3.06.39-4.37-1.1-1.32-3.05-1.49-4.37-.39Z"/>
              <path class="cls-62" d="M714.02,27.13c-.86.71-.97,1.99-.26,2.84.71.86,1.99.97,2.84.26.86-.71.97-1.99.26-2.84-.71-.86-1.99-.97-2.84-.26Z"/>
              <path class="cls-61" d="M1049.9,354.5c-1.51,1.26-1.72,3.52-.45,5.03,1.26,1.51,3.52,1.72,5.03.45,1.51-1.26,1.72-3.52.45-5.03-1.26-1.51-3.52-1.72-5.03-.45Z"/>
              <path class="cls-61" d="M1191.51,310.56c-1.51,1.26-1.72,3.52-.45,5.03,1.26,1.51,3.52,1.72,5.03.45,1.51-1.26,1.72-3.52.45-5.03-1.26-1.51-3.52-1.72-5.03-.45Z"/>
              <path class="cls-61" d="M1035.31,134.15c-1.51,1.26-1.72,3.52-.45,5.03,1.26,1.51,3.52,1.72,5.03.45,1.51-1.26,1.72-3.52.45-5.03-1.26-1.51-3.52-1.72-5.03-.45Z"/>
              <path class="cls-61" d="M1072.62,467.02c-1.51,1.26-1.72,3.52-.45,5.03,1.26,1.51,3.52,1.72,5.03.45,1.51-1.26,1.72-3.52.45-5.03-1.26-1.51-3.52-1.72-5.03-.45Z"/>
              <path class="cls-61" d="M126,212.06c-1.51,1.26-1.72,3.52-.45,5.03,1.26,1.51,3.52,1.72,5.03.45,1.51-1.26,1.72-3.52.45-5.03-1.26-1.51-3.52-1.72-5.03-.45Z"/>
            </g>
            <g>
              <path class="cls-25" d="M1477.05,137.38c-7.45,2.82-15.78-.94-18.59-8.39-2.82-7.45.94-15.78,8.39-18.59,7.45-2.82,15.78.94,18.59,8.39,2.82,7.45-.94,15.78-8.39,18.59Z"/>
              <path class="cls-37" d="M1475.76,410.6c-7.45,2.82-15.78-.94-18.59-8.39-2.82-7.45.94-15.78,8.39-18.59,7.45-2.82,15.78.94,18.59,8.39,2.82,7.45-.94,15.78-8.39,18.59Z"/>
              <path class="cls-22" d="M23.58,393.6c-7.45,2.82-15.78-.94-18.59-8.39-2.82-7.45.94-15.78,8.39-18.59,7.45-2.82,15.78.94,18.59,8.39,2.82,7.45-.94,15.78-8.39,18.59Z"/>
              <path class="cls-42" d="M1292.55,435.29c-2.69,1.02-5.69-.34-6.71-3.03-1.02-2.69.34-5.69,3.03-6.71,2.69-1.02,5.69.34,6.71,3.03,1.02,2.69-.34,5.69-3.03,6.71Z"/>
              <path class="cls-47" d="M1441.29,380.62c-3.44,1.3-7.28-.43-8.58-3.87-1.3-3.44.43-7.28,3.87-8.58,3.44-1.3,7.28.43,8.58,3.87,1.3,3.44-.43,7.28-3.87,8.58Z"/>
              <path class="cls-27" d="M1185.87,540.4c-3.44,1.3-7.28-.43-8.58-3.87-1.3-3.44.43-7.28,3.87-8.58,3.44-1.3,7.28.43,8.58,3.87,1.3,3.44-.43,7.28-3.87,8.58Z"/>
              <path class="cls-40" d="M665.86,374.93c-67.8,25.63-143.54-8.57-169.17-76.37-25.63-67.8,8.56-143.54,76.37-169.17,67.8-25.63,143.54,8.57,169.16,76.37,25.63,67.8-8.56,143.54-76.37,169.17Z"/>
              <path class="cls-23" d="M788.62,383.42c-34.06,12.87-72.12-4.3-84.99-38.37-12.87-34.06,4.3-72.12,38.37-84.99,34.06-12.87,72.12,4.3,84.99,38.37,12.87,34.06-4.3,72.12-38.37,84.99Z"/>
              <path class="cls-29" d="M1232.44,362.78c-15.8,5.97-33.46-2-39.43-17.8-5.97-15.8,2-33.46,17.8-39.43,15.8-5.97,33.46,2,39.43,17.8,5.97,15.8-2,33.46-17.8,39.43Z"/>
              <path class="cls-45" d="M1363.25,337.95c-8.31,3.14-17.58-1.05-20.72-9.36-3.14-8.31,1.05-17.58,9.36-20.72,8.31-3.14,17.58,1.05,20.72,9.35,3.14,8.31-1.05,17.58-9.36,20.72Z"/>
              <path class="cls-33" d="M133.29,442.74c-22.32,8.44-47.25-2.82-55.68-25.14-8.43-22.32,2.82-47.25,25.14-55.68,22.32-8.43,47.25,2.82,55.68,25.14,8.43,22.32-2.82,47.25-25.14,55.68Z"/>
              <path class="cls-32" d="M1047.82,194.32c-8.31,3.14-17.58-1.05-20.72-9.36-3.14-8.31,1.05-17.58,9.36-20.72,8.31-3.14,17.58,1.05,20.72,9.36,3.14,8.31-1.05,17.58-9.36,20.72Z"/>
            </g>
          </g>
        </g>
      </g>
    </g>
  </g>
</svg>